<svg xmlns="http://www.w3.org/2000/svg" fill="none" viewBox="0 0 180 24" height="24" width="180">
<g clip-path="url(#clip0_7558_339)">
<path fill="#034337" d="M8.02928 0.0284271L0 23.9991H2.97847L3.91645 21.199H12.137L13.0491 23.9991H16.0431L8.02928 0.0284271ZM4.78381 18.5866L8.02928 8.78812L11.2748 18.5866H4.78381Z"></path>
<path fill="#034337" d="M39.3566 0.0232496H42.118V10.3394L49.9767 0.0180817H53.4134L44.4797 11.7485L53.3738 23.9836H50.0069L42.1171 13.149V23.9888H39.3566V0.0232496Z"></path>
<path fill="#034337" d="M26.3928 23.9836C24.966 23.9796 23.5726 23.5511 22.39 22.7528C21.2075 21.9544 20.2891 20.8223 19.752 19.5004L22.1688 18.0362C23.2489 20.683 24.9974 21.1258 26.2765 21.1912C28.8122 21.3204 30.8321 19.4065 30.7933 17.3609C30.6796 11.4866 20.6529 13.7347 20.6917 5.89492C20.7817 4.294 21.4869 2.78979 22.6599 1.69657C23.8329 0.603347 25.3829 0.00567572 26.9862 0.028424C28.3327 0.00127455 29.6557 0.382694 30.7811 1.12242C31.9064 1.86215 32.7813 2.92547 33.2903 4.17227L30.845 5.57364C29.9673 3.39535 28.4781 2.80448 27.0818 2.80965C26.2069 2.78954 25.3559 3.09713 24.6961 3.67208C24.0362 4.24702 23.615 5.04781 23.5151 5.91731C23.1602 10.9526 33.8906 9.68303 33.5926 17.3471C33.5043 19.1771 32.6996 20.8989 31.3525 22.1406C30.0054 23.3823 28.2239 24.0443 26.3928 23.9836Z"></path>
<path fill="#034337" d="M85.3695 23.9785H82.6529V2.71404H77.112V0.00517273H91.0698V2.71404H85.3687L85.3695 23.9785Z"></path>
<path fill="#034337" d="M129.02 21.2506V23.975H115.634V0.0103302H118.363V21.2506H129.02Z"></path>
<path fill="#034337" d="M151.234 0.00257874L143.153 23.9845H146.155L147.098 21.1843H155.367L156.284 23.9845H159.299L151.234 0.00257874ZM147.968 18.5788L151.234 8.77519L154.5 18.5788H147.966H147.968Z"></path>
<path fill="#034337" d="M135.173 0.0129242H137.908V23.9785H135.173V0.0129242Z"></path>
<path fill="#034337" d="M102.536 0.00257874L94.46 23.9871H97.4617L98.4048 21.1869H106.674L107.59 23.9871H110.605L102.536 0.00257874ZM99.2696 18.5814L102.536 8.77519L105.802 18.5814H99.267H99.2696Z"></path>
<path fill="#034337" d="M176.431 0.00516796V16.3798L164.343 0V23.9871H167.073V8.53661L179.153 23.9733V0.00516796H176.431Z"></path>
<path fill="#034337" d="M68.1783 0.0129242V23.9785H70.913V0.0129242H68.1783Z"></path>
</g>
<defs>
<clipPath id="clip0_7558_339">
<rect fill="white" height="24" width="179.155"></rect>
</clipPath>
</defs>
</svg>
