<svg width="187" height="66" viewBox="0 0 187 66" fill="none" xmlns="http://www.w3.org/2000/svg"> <g clip-path="url(#clip0_211_3069)"> <path d="M53.8086 46.4946C53.7748 46.4946 53.7409 46.5285 53.707 46.5624C53.7409 46.5624 53.7748 46.5624 53.8425 46.5285L53.8086 46.4946Z" fill="#AE0E16"/> <path d="M59.1257 40.8394C58.3469 41.1103 57.5003 41.2796 56.6198 41.2796C55.7394 41.2796 56.315 41.2796 56.1796 41.2796V42.8373C56.1796 44.4289 55.2314 45.8851 53.8091 46.5285C53.7753 46.5623 53.7414 46.5623 53.6737 46.5623C53.4028 46.6639 53.1319 46.7655 52.861 46.7994C52.116 46.9348 51.3032 47.0703 50.4905 47.1719C49.136 47.3412 48.5942 47.3412 48.2894 47.3412C46.2576 47.3412 44.6321 46.7994 43.4469 45.7496C43.3453 45.648 43.2437 45.5464 43.1421 45.4448C43.1083 45.4787 43.0405 45.5126 43.0067 45.5464C43.176 45.8173 43.3115 46.0882 43.5146 46.3592C44.1242 47.1042 44.3274 48.1539 44.8692 48.9328C45.3433 49.3391 45.5464 49.9826 45.8512 50.5244C46.4269 51.5064 46.9687 52.4885 47.5444 53.5044C47.7814 53.843 47.646 54.2494 47.2396 53.9107C46.9687 53.6059 46.7655 53.2335 46.4608 52.9287C45.8174 52.2514 45.4449 51.371 44.8014 50.6937C44.2935 50.0164 43.7517 49.373 43.3115 48.6619C43.2099 48.4926 43.1083 48.3232 42.9728 48.1878C42.668 47.8492 42.4649 47.4428 42.1601 47.1042C41.9569 46.9348 41.8215 46.6978 41.686 46.4607C40.3992 47.3073 38.9769 47.9507 37.4531 48.391C37.5546 49.3391 37.6224 50.2873 37.7578 51.2355C37.8256 51.5403 37.8594 51.8789 37.8594 52.1837C38.0965 53.4705 38.1981 54.7912 38.4012 56.078C38.469 56.2812 38.5028 56.5182 38.4351 56.7214C38.3674 57.0262 38.5367 57.3309 38.5706 57.6357C38.6383 57.8727 38.3335 58.0082 38.1981 57.805C38.1642 57.7034 38.1303 57.6018 38.0965 57.5341C37.9272 56.4166 37.3515 55.57 37.216 54.3848C36.8097 52.59 36.3356 50.7614 35.8276 48.9666C35.8276 48.8989 35.7937 48.8312 35.7599 48.7635C34.8117 48.9328 33.8635 49.0344 32.8815 49.0344C31.8994 49.0344 31.6285 49.0005 31.019 48.8989C30.7142 50.0503 30.4772 51.2355 30.1047 52.3869C29.8338 53.2334 29.7322 54.08 29.4274 54.8928C29.3597 55.1637 29.292 55.4007 29.1226 55.6378C28.9195 55.9425 28.9533 56.2812 28.9195 56.6198C28.9195 57.0262 28.547 57.4325 28.3438 57.0262C28.2422 56.4843 28.6147 55.9425 28.547 55.3669C28.547 54.1816 28.784 52.9964 28.9872 51.845C29.1565 50.7614 29.2242 49.6778 29.4274 48.628C27.802 48.2894 26.2781 47.6798 24.8897 46.8671C24.6865 47.138 24.5511 47.4428 24.2801 47.646C23.2642 48.8651 22.4854 50.2535 21.4017 51.4387C21.097 51.7435 20.9615 52.1498 20.6568 52.4546C20.4536 52.6578 20.2504 52.861 20.1488 53.1319C19.9456 53.4028 19.6747 53.6059 19.4715 53.843C19.3699 53.9446 19.2006 53.9446 19.2006 53.7753C19.2683 53.0641 19.8779 52.4885 20.0811 51.8112C20.1149 51.6757 20.2165 51.5403 20.3181 51.4387C20.5213 51.2694 20.6229 51.0662 20.7245 50.8291C20.8938 50.5244 21.097 50.2873 21.3002 49.9826C22.0113 48.628 22.8579 47.3412 23.6367 46.0544C22.2483 45.0723 21.0293 43.8871 20.0472 42.5326C18.3202 43.5823 16.627 44.666 14.8661 45.6142C14.2227 45.9189 13.6809 46.4946 12.9697 46.6978C12.6988 46.7655 12.3602 46.6978 12.5972 46.3592C12.6988 46.2237 12.8004 46.0544 12.9697 45.9528C13.3422 45.7496 13.6131 45.4448 13.9179 45.2078C14.4936 44.8353 14.9677 44.3273 15.5434 43.9887C16.0513 43.6501 16.4577 43.176 16.9656 42.8712C17.7106 42.3633 18.4556 41.8214 19.2006 41.2796C18.3202 39.8574 17.6768 38.2658 17.2704 36.5726C16.4915 36.7081 15.6788 36.8096 14.9 36.9112C12.8681 37.216 10.8363 37.5885 8.80452 37.724C8.60134 37.724 8.2627 37.6224 8.46588 37.4192C8.60134 37.3176 8.77065 37.2837 8.90611 37.216C10.0575 36.8774 11.2088 36.5726 12.3941 36.3017C13.0375 36.1662 13.7147 36.0985 14.3243 35.8615C15.1709 35.489 16.0852 35.3535 16.9995 35.1842C16.8979 34.4392 16.8302 33.7281 16.8302 32.9492C16.8302 32.1703 16.9318 31.0867 17.0672 30.2063C16.119 29.9692 15.1709 29.7322 14.2565 29.4613C13.2068 29.1904 12.157 28.9194 11.1072 28.6824C10.3961 28.4115 9.68497 28.2083 8.97383 28.039C8.80452 28.0051 8.6352 27.9035 8.43202 27.9374C8.2627 27.9374 8.16111 27.8697 8.05952 27.7681C7.95793 27.6326 7.99179 27.4294 8.19497 27.3956C8.2627 27.3956 8.36429 27.3956 8.43202 27.3956C9.10929 27.6326 9.88815 27.531 10.5993 27.7004C11.2088 27.8358 11.8184 27.9713 12.4618 28.039C12.8004 28.039 13.139 28.039 13.4438 28.1406C14.0534 28.2422 14.6629 28.3776 15.3063 28.4792C15.7804 28.4792 16.2206 28.4792 16.6609 28.6485C16.9318 28.7163 17.2027 28.7501 17.4736 28.784C17.9138 27.1585 18.5911 25.6347 19.4715 24.2801C19.4038 24.2124 19.3022 24.1447 19.2345 24.077C18.8958 23.7045 18.3879 23.5351 18.0154 23.1965C16.9995 22.5192 16.6947 22.2483 15.7804 21.5033C15.137 21.097 14.5613 20.5552 13.9518 20.0811C13.647 19.844 13.2406 19.6408 13.0713 19.2683C13.0036 18.862 13.6131 19.099 13.8163 19.2006C14.3243 19.4715 14.7645 19.8102 15.3063 20.0472C16.5931 20.7245 17.8122 21.6049 19.099 22.2822C19.5054 22.5192 19.9456 22.824 20.352 23.0611C21.334 21.8081 22.5192 20.6906 23.8061 19.7763C23.6706 19.5392 23.5013 19.3022 23.3658 19.0652C23.0272 18.4895 22.7902 17.8461 22.3838 17.3043C22.1806 17.0672 22.0452 16.7624 21.9436 16.4915C21.4356 15.374 20.6568 14.3581 20.0811 13.2745C19.9118 12.6988 19.6408 12.4618 19.4377 11.9877C19.3361 11.3104 20.0472 12.2247 20.2504 12.3602C20.6906 12.7327 20.8599 13.3084 21.2663 13.6809C22.0113 14.6968 22.7563 15.7465 23.5352 16.7286C24.077 17.4736 24.6526 18.1847 25.1945 18.9297C26.549 18.1847 28.039 17.609 29.6306 17.2704C29.5629 16.8302 29.6306 16.3899 29.4951 15.9497C29.1226 13.884 28.9533 11.7845 28.6147 9.71883C28.6147 9.24474 28.4454 8.6352 28.5131 8.16111C28.7163 7.78861 28.9195 8.43202 28.9872 8.6352C29.8338 11.412 30.4772 14.2227 31.2222 16.9995C31.7978 16.9318 32.4074 16.8979 33.0169 16.8979C33.999 16.8979 34.9472 16.9995 35.8953 17.1688C36.1324 16.3561 36.471 15.5434 36.5726 14.6968C36.8097 13.8502 36.8774 12.902 37.2837 12.0893C37.4192 11.6491 37.4192 11.175 37.5885 10.7347C37.7578 10.2945 37.7578 9.82042 37.961 9.41406C38.1642 9.10929 38.1303 8.73679 38.1981 8.39815C38.2319 8.2627 38.3674 8.19497 38.5028 8.22883C38.7399 8.29656 38.706 8.56747 38.706 8.77065C38.706 9.92201 38.3674 10.7686 38.2996 11.8184C38.1981 12.6988 38.0626 13.6131 37.9272 14.4936C37.724 15.2386 37.6901 15.9836 37.5547 16.7286C37.5208 16.9995 37.4869 17.2365 37.4531 17.5074C38.9431 17.9477 40.3315 18.5911 41.6183 19.4038C43.1083 17.5413 44.5983 15.6449 46.0544 13.7147C46.3253 13.3422 46.6639 13.0036 46.901 12.5972C47.0026 12.394 47.1719 12.2586 47.3751 12.1231C47.7814 11.8861 47.8153 12.5295 47.646 12.7665C46.9348 13.7147 46.3592 14.7645 45.7496 15.7804C44.8014 17.2704 43.8871 18.7943 42.9728 20.3181C44.158 21.2663 45.2078 22.3838 46.0883 23.6029C47.7137 22.6547 49.3392 21.5033 51.0662 20.7245C51.9467 20.3181 52.6916 19.6747 53.606 19.3361C54.0123 19.2683 54.2155 18.862 54.6219 18.7943C54.7912 18.7943 54.8928 18.8958 54.825 19.0652C54.6219 19.4377 54.1139 19.5054 53.8769 19.844C53.2673 20.4536 52.4207 20.7922 51.8112 21.4356C50.2196 22.6547 48.5942 23.7722 46.9687 24.9574C47.0703 25.1606 47.1719 25.3638 47.2735 25.567C47.9169 25.4654 48.5603 25.4315 49.1698 25.4315C50.6598 25.4315 51.7773 25.7701 52.6239 26.2442C53.7753 25.7024 54.9944 25.4315 56.2473 25.4315C57.5003 25.4315 58.3807 25.6347 59.3289 26.0072C59.1934 25.4315 59.0919 24.7881 59.0919 24.1447C59.0919 22.0452 59.8368 20.2165 61.2591 18.862C61.4962 18.6588 61.7332 18.4556 61.9703 18.2524C60.5818 17.0672 58.6178 16.627 56.7891 17.2027C56.7214 17.2027 56.6537 17.2027 56.6198 17.1349C56.586 17.0672 56.586 16.9995 56.6198 16.9318C58.4484 14.7984 58.3469 11.6152 56.3489 9.61724C54.351 7.58543 51.1339 7.48384 49.0005 9.31247C48.9328 9.31247 48.8651 9.34633 48.7973 9.31247C48.7296 9.2786 48.6958 9.21088 48.6958 9.10929C49.5423 6.46793 48.2555 3.55567 45.648 2.43817C43.0067 1.35454 40.0267 2.43817 38.7399 4.94407C38.706 5.0118 38.6383 5.0118 38.5367 5.0118C38.469 5.0118 38.4012 4.94407 38.3674 4.87635C38.2319 2.20113 35.8953 0 33.0847 0C30.2401 0 27.9035 2.16726 27.6665 4.97794C27.6665 5.04566 27.5988 5.11339 27.531 5.11339C27.4633 5.11339 27.3617 5.11339 27.3279 5.04566C26.0749 2.57363 23.0611 1.42227 20.4536 2.5059C17.8122 3.58953 16.4915 6.5018 17.372 9.17701C17.372 9.24474 17.372 9.31247 17.3043 9.34633C17.2365 9.38019 17.1688 9.38019 17.1011 9.34633C14.9677 7.5177 11.7845 7.61929 9.78656 9.61724C7.75475 11.6152 7.65316 14.8322 9.48179 16.9656C9.48179 17.0333 9.48179 17.1011 9.48179 17.1688C9.44792 17.2365 9.34633 17.2704 9.27861 17.2704C6.63725 16.4238 3.72499 17.7106 2.60749 20.3181C1.52386 22.9595 2.60749 25.9395 5.11339 27.2263C5.18112 27.2601 5.18112 27.3279 5.18112 27.4294C5.18112 27.4972 5.11339 27.5649 5.04567 27.5988C2.20113 27.7681 0 30.1047 0 32.9492C0 35.7937 2.16727 38.1303 4.97794 38.3674C5.04567 38.3674 5.11339 38.4351 5.11339 38.5028C5.11339 38.5705 5.11339 38.6721 5.04567 38.706C2.57363 39.959 1.42227 42.9728 2.5059 45.5803C3.58953 48.2217 6.5018 49.5423 9.17702 48.6619C9.24474 48.6619 9.31247 48.6619 9.34633 48.7296C9.3802 48.7973 9.3802 48.8651 9.34633 48.9328C7.5177 51.0662 7.61929 54.2494 9.61724 56.2473C11.6152 58.2791 14.8322 58.3807 16.9656 56.5521C17.0334 56.5521 17.1011 56.5521 17.1688 56.5521C17.2365 56.5859 17.2704 56.6875 17.2704 56.7553C16.4238 59.3966 17.7106 62.3089 20.3181 63.4264C22.9595 64.51 25.9395 63.4264 27.2263 60.9205C27.2601 60.8527 27.3279 60.8527 27.4295 60.8527C27.4972 60.8527 27.5649 60.9205 27.5988 60.9882C27.802 63.765 30.1385 65.9661 32.9831 65.9661C35.8276 65.9661 38.1642 63.7989 38.4012 60.9882C38.4012 60.9205 38.469 60.8527 38.5367 60.8527C38.6044 60.8527 38.706 60.8527 38.7399 60.9205C39.9928 63.3925 42.9728 64.5439 45.6142 63.4602C48.2555 62.3766 49.5762 59.4643 48.6958 56.7891C48.6958 56.7214 48.6958 56.6537 48.7635 56.6198C48.8312 56.5859 48.8989 56.5859 48.9667 56.6198C51.1001 58.4484 54.2832 58.3468 56.2812 56.3489C58.313 54.3509 58.4146 51.1339 56.586 49.0005C56.586 48.9328 56.586 48.8651 56.586 48.7973C56.6198 48.7296 56.6875 48.6957 56.7891 48.6957C59.0919 49.4407 61.5639 48.5603 62.9184 46.6301C62.038 46.2237 61.3946 45.7158 60.9205 45.2417C60.1416 44.4289 59.2273 43.0067 59.1257 40.7717V40.8394Z" fill="#FFD500"/> <path d="M141.381 35.2858C141.381 35.3196 141.415 35.3874 141.449 35.4212V35.1165C141.449 35.1842 141.415 35.218 141.381 35.2858Z" fill="#AE0E16"/> <path d="M120.588 43.1422C119.505 43.4808 118.455 43.6501 117.507 43.6501C116.118 43.6501 115.103 43.3454 114.527 42.7697C113.951 42.194 113.646 41.212 113.646 39.8574V34.4731C113.646 34.2699 113.477 34.1006 113.274 34.1006C113.037 34.1006 112.732 34.1006 111.987 34.1006C111.784 34.1006 111.615 33.9313 111.615 33.762C111.581 33.2879 111.547 32.7799 111.547 32.3058C111.547 31.1545 111.716 30.3756 112.089 29.9354C112.427 29.529 112.935 29.292 113.613 29.2581H113.951V29.1565C113.951 27.9375 113.816 27.2602 113.68 26.8877C113.613 26.6845 113.68 26.4813 113.883 26.3797C115.407 25.8041 116.999 25.6009 118.658 25.7025C119.505 25.7702 120.453 25.9395 120.792 26.8538C121.029 27.4972 121.063 28.1068 121.063 28.7502C121.063 29.0211 121.266 29.2243 121.537 29.2243H122.011C122.18 29.2243 122.349 29.2243 122.62 29.2243C122.891 29.2243 122.993 29.2243 123.298 29.2243C123.501 29.2243 123.67 29.3936 123.67 29.5629C123.67 29.8677 123.704 30.1386 123.738 30.4434C123.704 31.7302 123.568 32.5429 123.264 33.1186C122.857 33.8636 122.214 34.2361 121.266 34.2361H121.063V38.2997C121.063 39.1801 121.164 39.8574 121.367 40.2976C121.57 40.7717 121.808 41.0765 122.146 41.2797C122.282 41.3474 122.451 41.449 122.654 41.4829C122.959 41.5845 123.027 41.9908 122.756 42.1601C122.18 42.6004 121.469 42.939 120.656 43.176L120.588 43.1422Z" fill="#AE0E16"/> <path d="M66.542 27.8358C67.5579 27.8358 68.4384 27.4972 69.1157 26.8199C69.3527 26.5829 69.522 26.3458 69.6913 26.1088C69.9961 25.567 70.1654 24.9574 70.1654 24.2802C70.1654 23.2643 69.8268 22.4177 69.1495 21.7404C68.4722 21.0631 67.5918 20.7245 66.5759 20.7245C65.56 20.7245 64.5779 21.0631 63.9007 21.7065C63.2234 22.3499 62.8848 23.2304 62.8848 24.314C62.8848 25.3977 63.0202 25.6008 63.325 26.1088C63.4943 26.3797 63.6975 26.6506 63.9345 26.8876C64.6457 27.5311 65.5261 27.8697 66.6098 27.8697L66.542 27.8358Z" fill="#AE0E16"/> <path d="M147.747 21.6726C147.07 20.9954 146.189 20.6567 145.174 20.6567C144.158 20.6567 143.176 20.9954 142.498 21.6388C141.821 22.2822 141.482 23.1626 141.482 24.2463C141.482 25.3299 141.618 25.5331 141.923 26.041C142.092 26.3119 142.295 26.5829 142.532 26.8199C143.243 27.4633 144.124 27.8019 145.207 27.8019C146.291 27.8019 147.104 27.4633 147.781 26.786C148.018 26.549 148.187 26.3119 148.357 26.0749C148.661 25.5331 148.831 24.9235 148.831 24.2463C148.831 23.2304 148.492 22.3838 147.815 21.7065L147.747 21.6726Z" fill="#AE0E16"/> <path d="M102.03 29.8338C101.556 30.0708 101.183 30.3756 100.845 30.6804C100.608 30.9174 100.201 30.7481 100.201 30.4095V25.9395C100.201 23.7045 99.1177 22.6208 96.9166 22.6208C94.7155 22.6208 95.3589 22.7224 94.5123 22.8918C94.1736 22.9595 93.8011 23.0611 93.3948 23.1627C92.9884 23.2643 92.5821 23.3997 92.1757 23.5352C91.9048 23.6368 91.8371 23.9415 92.0064 24.1447C92.2434 24.4156 92.4127 24.7204 92.5482 25.0929C92.7514 25.6686 92.853 26.4474 92.853 27.3956V40.5347C92.853 41.686 93.1239 42.4649 93.6318 42.9051C94.1398 43.3453 94.9525 43.5824 96.07 43.5824C97.1875 43.5824 97.2552 43.5146 98.0002 43.4131C98.7452 43.2776 99.1854 43.2099 99.3548 43.2099C99.4563 43.2099 99.6595 43.176 99.9304 43.1083C100.1 43.1083 100.269 42.9051 100.269 42.7358V38.1981C100.269 37.2838 100.269 36.5726 100.371 36.0647C100.438 35.5906 100.54 35.2181 100.709 35.0149C100.879 34.8117 101.15 34.7101 101.454 34.7101C101.759 34.7101 102.064 34.8794 102.199 35.2519C102.369 35.5906 102.436 36.234 102.436 37.0806C102.436 37.9272 102.436 38.2997 102.335 39.1124L102.267 40.0267C102.199 41.1781 102.369 42.0585 102.843 42.7019C103.317 43.3115 104.197 43.6162 105.45 43.6162C106.703 43.6162 107.313 43.4808 108.261 43.2099C109.006 43.0067 109.649 42.7019 110.259 42.2956C110.496 42.1601 110.462 41.8215 110.259 41.6521C110.191 41.6183 110.123 41.5506 110.089 41.4828C109.988 41.3812 109.92 41.2458 109.852 41.0765C109.615 40.5685 109.514 39.8912 109.514 39.0447C109.514 38.2997 109.548 37.5885 109.548 36.9113C109.548 36.3694 109.548 35.8615 109.548 35.3874C109.548 33.254 109.175 31.6963 108.396 30.6804C108.261 30.511 108.125 30.3756 107.99 30.2401C107.211 29.529 106.094 29.1565 104.604 29.1565C103.114 29.1565 102.843 29.3597 102.03 29.7999V29.8338Z" fill="#AE0E16"/> <path d="M69.3516 30.2063C68.8098 29.5629 67.8955 29.2242 66.5748 29.2242C65.2541 29.2242 64.4414 29.4613 63.3578 29.9354C62.9175 30.1386 62.4773 30.3417 62.0371 30.6126C61.8 30.7481 61.7662 31.0867 61.9694 31.2222C62.1725 31.3915 62.3418 31.6286 62.4773 31.9333C62.6466 32.4413 62.7482 33.0847 62.7482 33.9313V40.0944C62.6466 42.4987 63.798 43.684 66.2362 43.684C68.6743 43.684 67.523 43.6162 68.2341 43.4469C68.4373 43.4131 68.6743 43.3453 68.9114 43.2776C69.6564 43.0744 70.2998 42.7696 70.9093 42.3633C71.1464 42.2278 71.1125 41.8892 70.9093 41.7199C70.74 41.5844 70.6045 41.3812 70.503 41.1442C70.2659 40.6362 70.1643 39.959 70.1643 39.1124V33.0847C70.1643 32.3735 70.0627 31.764 69.8934 31.2222C69.758 30.8158 69.5886 30.4772 69.3516 30.1724V30.2063Z" fill="#AE0E16"/> <path d="M44.2252 31.2221C44.4284 31.3914 44.5977 31.5608 44.7332 31.7978C44.767 31.8655 44.8009 31.9333 44.8348 32.001C44.9363 32.2719 45.0041 32.6105 45.0379 33.0169C45.0379 33.2878 45.0718 33.5926 45.0718 33.8973V40.6023C45.0718 41.0764 45.1057 41.4489 45.2073 41.8214C45.3427 42.3294 45.5459 42.7357 45.8507 43.0066C46.3586 43.4469 47.1713 43.6839 48.2888 43.6839C49.4063 43.6839 49.1693 43.6162 50.0497 43.5146C50.7947 43.413 51.5059 43.3114 52.1831 43.1759C52.3525 43.1421 52.4879 42.9728 52.4879 42.8034V34.473C52.4879 34.3376 52.5556 34.236 52.6572 34.1682C52.9959 33.9312 53.3006 33.8296 53.6054 33.8296C53.9102 33.8296 54.215 33.9312 54.4181 34.1682C54.6213 34.4053 54.7229 34.6762 54.7229 34.981C54.7229 35.2857 54.6552 35.4212 54.5197 35.6582C54.452 35.7598 54.3504 35.8614 54.215 35.963C54.0456 36.0985 54.0118 36.3694 54.215 36.5387C54.5536 36.8773 54.8922 37.1482 55.2309 37.2837C55.6711 37.4869 56.1452 37.5885 56.6193 37.5885C57.7368 37.5885 58.6511 37.1821 59.3622 36.3694C60.0733 35.5567 60.4458 34.5069 60.4458 33.2201C60.4458 31.9333 60.0733 31.0528 59.2945 30.3078C58.5156 29.5628 57.5336 29.1903 56.3145 29.1903C55.0954 29.1903 54.6552 29.4274 53.8425 29.8676C53.3684 30.1385 52.962 30.5448 52.6234 31.0528C52.4541 31.3237 52.0477 31.2898 51.9122 30.9851C51.7768 30.5448 51.5736 30.2062 51.3366 29.9353C50.8963 29.4612 50.1852 29.2242 49.1693 29.2242C48.1534 29.2242 47.3068 29.3596 46.3586 29.6305C46.02 29.7321 45.7152 29.8337 45.4443 29.9692C45.0379 30.1385 44.6316 30.3755 44.2591 30.6126C44.0559 30.748 44.022 31.0528 44.2591 31.2221H44.2252Z" fill="#AE0E16"/> <path d="M172.839 41.7876C172.975 41.8891 173.11 41.9907 173.246 42.1262C174.634 43.1421 176.463 43.6839 178.731 43.6839C181 43.6839 182.93 43.2437 184.183 42.3294C185.199 41.5844 185.809 40.6362 185.978 39.451C186.012 39.1462 185.707 38.9092 185.436 39.0446C184.454 39.5526 183.168 39.8235 181.576 39.8235C179.984 39.8235 178.596 39.3832 178.02 38.4689C178.02 38.4689 181.339 38.3335 182.592 37.961C183.845 37.5885 184.759 37.1144 185.369 36.471C185.978 35.8276 186.283 35.1164 186.283 34.3037C186.283 33.491 186.012 32.509 185.436 31.7301C184.861 30.9851 184.048 30.3756 182.964 29.9353C181.881 29.4951 180.628 29.2581 179.172 29.2581C176.429 29.2581 174.329 29.9015 172.873 31.1544C172.67 31.3237 172.501 31.5269 172.297 31.7301C171.214 32.9492 170.672 34.5069 170.672 36.4371C170.672 38.3673 171.383 40.6023 172.805 41.8553L172.839 41.7876ZM177.715 33.254C177.715 33.254 177.715 33.2201 177.749 33.1862C177.749 33.1524 177.783 33.0846 177.817 33.0508C178.088 32.6444 178.562 32.4412 179.07 32.509C179.781 32.6105 180.086 33.3894 180.12 34.0328C180.12 34.1005 180.12 34.1344 180.12 34.1683C180.12 34.3037 180.12 34.4392 180.086 34.5746C180.018 35.0487 179.815 35.4551 179.476 35.7937C179.07 36.2001 178.494 36.5049 177.817 36.6742C177.817 36.6742 177.783 36.6742 177.749 36.6742C177.682 36.6742 177.614 36.6742 177.546 36.6064C177.478 36.5387 177.411 36.471 177.411 36.3694C177.411 36.0985 177.411 35.726 177.411 35.218C177.411 34.2699 177.512 33.5926 177.715 33.1524V33.254Z" fill="#AE0E16"/> <path d="M151.335 36.471C151.335 38.9092 151.877 40.7378 152.927 41.8891C153.062 42.0585 153.232 42.1939 153.367 42.3294C154.349 43.2098 155.534 43.65 156.923 43.65C158.311 43.65 159.09 43.3791 159.903 42.8373C160.377 42.5325 160.749 42.0585 161.054 41.4151C161.19 41.0764 161.698 41.1441 161.765 41.4828C161.867 41.9569 162.036 42.3632 162.239 42.7019C162.646 43.3453 163.425 43.65 164.61 43.65C165.795 43.65 166.337 43.5146 167.353 43.2437C168.132 43.0405 168.809 42.7357 169.418 42.3294C169.655 42.1939 169.622 41.8553 169.418 41.7198C169.249 41.5844 169.114 41.3812 169.012 41.1441C168.775 40.6362 168.673 39.9589 168.673 39.1123V25.9733C168.673 24.9235 168.369 24.1108 167.861 23.5351C167.353 22.9594 166.405 22.6547 165.084 22.6547C163.763 22.6547 162.476 22.9594 160.614 23.6028C160.343 23.7044 160.275 24.0092 160.445 24.2124C160.682 24.4833 160.851 24.7881 160.953 25.1606C161.156 25.7362 161.257 26.5151 161.257 27.4971V30.4771C161.257 30.8158 160.817 30.9851 160.58 30.748C160.309 30.4433 160.004 30.1724 159.632 29.9692C158.853 29.4951 157.905 29.258 156.821 29.258C155.196 29.258 153.875 29.7999 152.825 30.9174C152.656 31.1205 152.487 31.3576 152.317 31.5946C151.64 32.7121 151.268 34.2698 151.268 36.3017V36.5726L151.335 36.471ZM160.14 33.3894C161.156 33.3894 161.698 34.4053 161.698 36.3694V36.4371C161.698 37.4192 161.596 38.1303 161.359 38.6044C161.088 39.1462 160.682 39.4171 160.14 39.4171C159.598 39.4171 159.226 39.2478 158.887 38.5367C158.65 38.0287 158.548 37.3514 158.548 36.471C158.548 36.471 158.548 36.4033 158.548 36.3694C158.548 35.4889 158.65 34.8117 158.853 34.3037C159.158 33.5249 159.7 33.3555 160.14 33.3555V33.3894Z" fill="#AE0E16"/> <path d="M140.703 30.6126C140.466 30.7481 140.432 31.0867 140.635 31.2222C140.839 31.3915 141.008 31.6286 141.143 31.9333C141.313 32.4413 141.414 33.0847 141.414 33.9313V40.0944C141.38 40.941 141.516 41.6522 141.787 42.194C142.295 43.176 143.344 43.684 144.902 43.684C146.46 43.684 146.561 43.5485 147.544 43.2776C148.289 43.0744 148.932 42.7696 149.541 42.3633C149.779 42.2278 149.745 41.8892 149.541 41.7199C149.372 41.5844 149.237 41.3812 149.135 41.1442C148.898 40.6362 148.796 39.959 148.796 39.1124V33.0847C148.796 31.7979 148.526 30.8497 147.984 30.2063C147.442 29.5629 146.528 29.2242 145.207 29.2242C143.886 29.2242 142.701 29.5629 141.448 30.2063C141.211 30.3417 140.94 30.4772 140.703 30.6126Z" fill="#AE0E16"/> <path d="M89.3319 44.5983C88.7901 43.9887 87.9096 43.2776 86.589 42.9051C86.081 42.7358 85.5731 42.6342 85.0651 42.6003C85.0651 42.6003 85.0651 42.6003 85.0312 42.6003C83.7444 42.3972 82.4576 42.3972 81.1708 42.3633C80.3242 42.3633 79.4776 42.3633 78.631 42.3633C77.9199 42.3633 77.1072 42.3633 76.5315 41.8553C76.0913 41.449 76.0574 40.9749 76.2267 40.5008C76.2945 40.2976 76.5315 40.2299 76.7008 40.2976C76.904 40.3653 77.141 40.4331 77.3442 40.5008C77.3442 40.5008 77.3442 40.5008 77.3781 40.5008C78.6649 40.7717 80.0194 40.8394 81.3401 40.8394C84.2185 40.8394 86.3519 40.3653 87.7742 39.4172C89.1965 38.469 89.9076 36.979 89.9076 34.981C89.9076 32.9831 89.5351 32.6445 88.7562 31.7301C88.0451 30.8836 87.0292 30.2402 85.7424 29.7999C85.5392 29.7322 85.4037 29.529 85.5053 29.3258C85.6069 29.0549 85.7424 28.8517 85.9794 28.6824C86.2842 28.4454 86.6567 28.3099 87.0969 28.3099C87.7742 28.3099 88.4515 28.6147 89.0271 29.2242C89.0949 29.292 89.1287 29.3597 89.1287 29.4274C89.1287 29.5967 89.3658 29.6645 89.4674 29.5629C89.8399 29.2242 90.1446 28.8517 90.3478 28.5131C90.6187 28.1067 90.7542 27.5649 90.7542 26.9215C90.7542 26.2781 90.4494 25.2961 89.8737 24.6865C89.298 24.077 88.5192 23.7722 87.5371 23.7722C86.5551 23.7722 85.336 24.1447 84.5571 24.9236C83.7783 25.7024 83.4058 26.7522 83.4058 28.1067C83.4058 29.4613 83.4058 28.547 83.4058 28.784C83.4058 29.0211 83.2365 29.2242 82.9994 29.1904C82.356 29.1565 81.8142 29.1227 81.3401 29.1227C78.631 29.1227 76.5315 29.6306 75.0754 30.6465C73.6192 31.6624 72.8742 33.0847 72.8742 34.9133C72.8742 36.7419 73.2129 37.7579 74.1949 38.8076C74.3304 38.9431 74.3304 39.1801 74.1949 39.3156C73.3145 40.2976 72.6372 41.5506 72.2647 42.6342C71.6551 44.3951 71.6551 45.9867 72.8065 47.3412C74.2288 49.0005 76.3283 49.1021 78.2924 48.7635C79.4776 48.5603 81.1369 47.8492 82.2883 48.4926C82.864 48.8312 83.2026 49.5085 83.101 50.1858C82.9994 50.8292 82.4237 51.4049 81.7803 51.5064C80.8999 51.6419 80.0194 50.9985 79.9178 50.118C79.9178 49.9826 79.8501 49.9149 79.7824 49.9487C79.6131 50.0164 79.4776 50.2196 79.376 50.4228C78.2247 52.4885 79.8163 54.4526 81.8819 54.9605C85.2006 55.7732 88.8917 54.3848 90.2801 51.1678C90.6187 50.3551 90.8219 49.4746 90.8219 48.5942C90.8219 47.7137 90.5171 46.2915 89.9415 45.3094C89.806 45.0385 89.6028 44.8353 89.4335 44.666L89.3319 44.5983ZM81.374 32.3058C81.7465 32.3058 82.2544 32.4413 82.5931 33.1186C82.7962 33.491 82.8978 33.9651 82.9317 34.5747C82.9317 34.7101 82.9317 34.8456 82.9317 35.0149C82.9317 35.1842 82.9317 35.252 82.9317 35.3535C82.8301 37.216 82.0513 37.6224 81.374 37.6224C80.6967 37.6224 80.3919 37.3515 80.1549 36.8774C79.9517 36.5049 79.8501 36.0308 79.8163 35.3874C79.8163 35.252 79.8163 35.1504 79.8163 35.0149C79.8163 34.8795 79.8163 34.7101 79.8163 34.5408C79.8163 33.9313 79.9517 33.4233 80.121 33.0847C80.3581 32.5767 80.7983 32.3058 81.374 32.3058Z" fill="#AE0E16"/> <path d="M125.734 33.5926C125.734 34.3037 125.836 34.9133 126.073 35.4212C126.175 35.6244 126.276 35.8276 126.378 35.9969C126.615 36.3356 126.92 36.6742 127.326 37.0467C127.326 37.0467 127.326 37.0467 127.36 37.0806C128.274 37.7578 129.358 38.2658 130.408 38.6721C130.814 38.8415 131.22 38.9769 131.491 39.3155C131.728 39.6542 131.83 40.0944 131.627 40.4669C131.356 40.9071 130.814 41.0087 130.374 40.9071C129.832 40.7717 129.358 40.3992 128.951 40.0605C128.951 40.0605 128.884 40.0267 128.85 39.9928C128.24 39.451 127.631 38.7737 127.089 37.9949C126.953 37.7917 126.683 37.7578 126.513 37.9271C126.276 38.1642 126.073 38.469 125.938 38.8415C125.836 39.0446 125.802 39.2478 125.734 39.451C125.667 39.7558 125.633 40.0605 125.633 40.3315C125.633 41.0765 125.938 41.7199 126.513 42.2278C126.716 42.431 126.953 42.6003 127.258 42.7358C128.342 43.3453 129.798 43.6501 131.627 43.6501C133.455 43.6501 135.826 43.2437 137.011 42.4649C138.162 41.6521 138.772 40.6024 138.772 39.3155C138.772 38.0287 138.569 37.6562 138.196 37.0467C138.162 37.0128 138.128 36.9451 138.061 36.8774C137.519 36.0308 136.537 35.489 135.69 35.0149C135.284 34.8117 134.844 34.6085 134.437 34.4053C133.929 34.2022 133.32 34.0667 132.947 33.6265C132.643 33.2878 132.507 32.7799 132.744 32.3735C133.252 31.4592 134.505 32.001 135.081 32.509C135.521 32.8815 135.927 33.3556 136.334 33.9313C136.537 34.2022 136.706 34.4392 136.842 34.6085C136.977 34.8117 137.248 34.8456 137.417 34.6762C137.654 34.4392 137.858 34.1683 138.027 33.8635C138.23 33.4233 138.332 32.9831 138.332 32.5428C138.332 31.4931 137.79 30.6804 136.706 30.0708C135.623 29.4613 134.031 29.1565 131.898 29.1565C129.764 29.1565 128.443 29.5629 127.394 30.3756C126.344 31.1883 125.836 32.2381 125.836 33.5249L125.734 33.5926Z" fill="#AE0E16"/> <path d="M122.654 42.1262C122.925 41.9231 122.857 41.5506 122.553 41.449C122.383 41.3812 122.214 41.3135 122.045 41.2458C121.74 41.0765 121.469 40.7378 121.266 40.2637C121.063 39.7897 120.961 39.1124 120.961 38.2658V34.2022H121.164C122.078 34.2022 122.756 33.8297 123.162 33.0847C123.467 32.509 123.602 31.6963 123.636 30.4772C123.636 30.1386 123.636 29.8676 123.568 29.5629C123.568 29.3597 123.365 29.2242 123.196 29.2242C122.925 29.2242 122.722 29.2242 122.519 29.2242C122.214 29.2242 122.045 29.2242 121.909 29.2242C121.74 29.2242 121.571 29.2242 121.435 29.2242C121.164 29.2242 120.961 29.0211 120.961 28.7501C120.961 28.1067 120.961 27.4972 120.69 26.8538C120.351 25.9733 119.403 25.7702 118.557 25.7024C116.931 25.567 115.306 25.804 113.782 26.3797C113.579 26.4474 113.477 26.6845 113.579 26.8877C113.748 27.2602 113.85 27.9374 113.85 29.1565V29.2581H113.511C112.834 29.2581 112.326 29.4951 111.987 29.9354C111.615 30.3756 111.445 31.1883 111.445 32.3058C111.445 33.4233 111.445 33.2879 111.513 33.7619C111.513 33.9651 111.716 34.1006 111.886 34.1006C112.631 34.1006 112.935 34.1006 113.172 34.1006C113.376 34.1006 113.545 34.2699 113.545 34.4731V39.8574C113.545 41.2119 113.85 42.1601 114.425 42.7696C115.001 43.3453 116.017 43.6501 117.405 43.6501C118.794 43.6501 119.403 43.4808 120.487 43.1421C121.3 42.9051 121.977 42.5665 122.586 42.1262H122.654Z" fill="#AE0E16"/> <path d="M41.008 34.0329C40.3645 33.5588 39.4841 33.2201 38.4005 32.9831C37.9941 32.8815 37.9941 32.3397 38.4005 32.2381C39.1793 32.001 39.8566 31.6624 40.4323 31.256C41.5159 30.4433 42.0577 29.292 42.0577 27.8697C42.0577 26.4474 41.3466 24.9913 39.8905 24.0431C38.4343 23.0949 36.4025 22.6208 33.795 22.6208C31.1875 22.6208 30.578 22.7902 28.6478 23.1627C26.9207 23.4674 26.108 23.6706 24.7196 24.2463C24.5164 24.3479 24.4148 24.5511 24.5164 24.7543C24.6857 25.1267 24.8551 25.9056 24.8889 27.5988C24.9228 30.511 24.9228 32.2381 24.9228 33.0847V38.0288C24.9228 39.6881 25.0921 40.9072 25.4307 41.6521C25.7694 42.3971 26.4466 42.9051 27.5303 43.176C28.58 43.4469 30.3409 43.6162 32.7791 43.6162C35.2173 43.6162 36.4025 43.3792 37.9264 42.9051C39.4164 42.431 40.6016 41.7537 41.4482 40.8394C42.2948 39.9251 42.735 38.8076 42.735 37.4869C42.735 36.1663 42.1932 34.7779 41.1095 33.999L41.008 34.0329ZM32.5421 26.3797C32.8468 26.312 33.1178 26.2781 33.3209 26.2781C33.8966 26.2781 34.3368 26.5152 34.7093 26.9892C35.048 27.4295 35.1834 28.1406 35.1834 29.1904C35.1834 30.2401 34.9464 30.9513 34.5062 31.3915C34.0659 31.8317 33.4564 32.0349 32.6437 32.0688C32.4405 32.0688 32.2373 31.8995 32.2373 31.6963V26.7861C32.2373 26.6167 32.3728 26.4474 32.5421 26.4136V26.3797ZM35.285 37.1483C35.285 37.9949 35.0818 38.6722 34.7432 39.1801C34.3368 39.7219 33.7612 39.9928 33.0162 39.9928H32.6098C32.4066 39.9928 32.2373 39.8235 32.2373 39.6203V34.6424C32.2373 34.4392 32.4066 34.2699 32.6437 34.2699C33.4564 34.2699 34.0998 34.4731 34.54 34.8117C35.0141 35.1842 35.2512 35.9631 35.285 37.1483Z" fill="#AE0E16"/> </g> <defs> <clipPath id="clip0_211_3069"> <rect width="186.317" height="66" fill="white"/> </clipPath> </defs> </svg>