<?xml version="1.0" encoding="UTF-8"?>
<svg xmlns="http://www.w3.org/2000/svg" viewBox="0 0 235 84">
  <defs>
    <style>
      .cls-1 {
        fill: #e62506;
        stroke-width: 0px;
      }
    </style>
  </defs>
  <g id="Symbol">
    <path class="cls-1" d="m84,24v-12h-12V0h-12v12h-12V0h-12v12h-12V0h-12v12H0v12h12v12H0v12h12v12H0v12h12v12h12v-12h12v12h12v-12h12v12h12v-12h12v-12h-12v-12h12v-12h-12v-12h12Zm-24,12v24H24V24h36v12Z"/>
  </g>
  <g id="Logotype_Outlined_" data-name="Logotype (Outlined)">
    <g id="English_Heritage" data-name="English Heritage">
      <g id="Heritage">
        <path class="cls-1" d="m102,46.54h5.18v10.43h8.19v-10.43h5.18v25.46h-5.18v-10.6h-8.19v10.6h-5.18v-25.46Z"/>
        <path class="cls-1" d="m139.03,70.19c-.96,1.17-3.37,2.3-6.63,2.3-5.82,0-9.36-4.08-9.36-9.72s3.48-9.75,8.87-9.75,8.19,3.87,8.19,8.3c0,1.21-.11,2.41-.18,3.09h-11.81c.28,2.3,1.88,3.87,4.89,3.87,2.45,0,4.54-.96,5.89-2.13h.14v4.04Zm-3.65-9.22c-.11-2.27-1.31-3.76-3.51-3.76s-3.48,1.49-3.76,3.76h7.27Z"/>
        <path class="cls-1" d="m153.89,58.1c-.57-.18-1.21-.35-2.09-.35-1.95,0-3.23.92-3.83,2.59-.35.99-.5,2.41-.5,4.36v7.31h-5.04v-18.48h4.89l.14,2.87h.07c.74-1.88,1.88-3.37,4.25-3.37.82,0,1.6.18,2.23.5v4.57h-.14Z"/>
        <path class="cls-1" d="m156.23,46.54h5.21v4.79h-5.21v-4.79Zm.07,6.99h5.04v18.48h-5.04v-18.48Z"/>
        <path class="cls-1" d="m163.53,54.27c3.72-.32,5.14-1.38,5.74-5.53h3.4v4.79h5.71v4.22h-5.78v7.16c0,1.28.14,1.91.53,2.41.35.43,1.06.82,2.16.82,1.31,0,2.38-.39,2.94-.71h.14v3.87c-.85.64-2.48,1.21-4.11,1.21-2.62,0-4.57-.96-5.53-2.45-.67-1.06-1.1-2.45-1.1-4.82v-7.48h-4.11v-3.48Z"/>
        <path class="cls-1" d="m190.49,69.62h-.07c-.57,1.67-2.2,2.87-4.54,2.87-2.77,0-5.46-1.77-5.46-5.46s2.41-4.79,6.74-5.64c2.59-.5,3.4-.96,3.4-2.2,0-.74-.43-1.91-3.26-1.91s-5.07,1.21-6.35,2.55h-.14v-4.04c1.1-1.49,3.48-2.77,6.81-2.77,2.3,0,4.5.64,5.92,2.13,1.17,1.24,1.67,2.69,1.67,5.71v11.13h-4.61l-.11-2.38Zm-.11-5.92c-.5.25-1.21.43-2.2.64-1.91.39-2.8,1.1-2.8,2.38,0,1.13.82,1.77,2.06,1.77.96,0,1.7-.35,2.2-.89.46-.5.74-1.28.74-2.62v-1.28Z"/>
        <path class="cls-1" d="m210.61,68.74h-.07c-.82,1.56-2.7,2.41-4.86,2.41-5,0-8.05-3.87-8.05-9.08s3.26-9.04,7.73-9.04c2.7,0,4.5,1.13,5.43,3.44h.07l.11-2.94h4.65v15.11c0,1.53-.14,2.94-.32,3.94-.71,3.76-4.36,5.89-8.4,5.89s-6.06-1.28-7.2-2.38v-4.08h.14c1.53,1.1,3.58,2.2,6.13,2.2,2.41,0,3.9-.82,4.4-2.48.21-.71.25-1.42.25-2.66v-.32Zm-3.87-11.38c-2.7,0-4.08,2.16-4.08,4.89,0,2.87,1.38,5.25,4.15,5.25s4.08-2.2,4.08-5-1.42-5.14-4.15-5.14Z"/>
        <path class="cls-1" d="m233.94,70.19c-.96,1.17-3.37,2.3-6.63,2.3-5.82,0-9.36-4.08-9.36-9.72s3.48-9.75,8.87-9.75,8.19,3.87,8.19,8.3c0,1.21-.11,2.41-.18,3.09h-11.81c.28,2.3,1.88,3.87,4.89,3.87,2.45,0,4.54-.96,5.89-2.13h.14v4.04Zm-3.65-9.22c-.11-2.27-1.31-3.76-3.51-3.76s-3.48,1.49-3.76,3.76h7.27Z"/>
      </g>
      <g id="English">
        <path class="cls-1" d="m102.01,12h16.17v4.57h-10.99v5.85h10.14v4.43h-10.14v6.03h10.99v4.57h-16.17V12Z"/>
        <path class="cls-1" d="m121.49,18.99h4.89l.14,2.8h.07c.89-1.7,2.41-3.3,5.39-3.3,2.7,0,4.47,1.42,5.36,3.19.71,1.42.82,3.01.82,5.18v10.6h-5.04v-9.54c0-1.52,0-2.69-.42-3.58-.39-.85-1.1-1.49-2.41-1.49-1.6,0-2.52,1.03-3.01,2.02-.64,1.28-.74,2.8-.74,5.04v7.55h-5.04v-18.48Z"/>
        <path class="cls-1" d="m153.56,34.2h-.07c-.82,1.56-2.7,2.41-4.86,2.41-5,0-8.05-3.87-8.05-9.08s3.26-9.04,7.73-9.04c2.7,0,4.5,1.13,5.43,3.44h.07l.11-2.94h4.65v15.11c0,1.53-.14,2.94-.32,3.94-.71,3.76-4.36,5.89-8.4,5.89s-6.06-1.28-7.2-2.38v-4.08h.14c1.53,1.1,3.58,2.2,6.13,2.2,2.41,0,3.9-.82,4.4-2.48.21-.71.25-1.42.25-2.66v-.32Zm-3.87-11.38c-2.7,0-4.08,2.16-4.08,4.89,0,2.87,1.38,5.25,4.15,5.25s4.08-2.2,4.08-5-1.42-5.14-4.15-5.14Z"/>
        <path class="cls-1" d="m162.2,12h5.04v25.46h-5.04V12Z"/>
        <path class="cls-1" d="m170.81,12h5.21v4.79h-5.21v-4.79Zm.07,6.99h5.04v18.48h-5.04v-18.48Z"/>
        <path class="cls-1" d="m178.76,31.29c1.49,1.42,4.01,2.38,5.99,2.38,1.56,0,2.3-.6,2.3-1.53,0-.74-.39-1.1-1.77-1.56l-1.92-.64c-2.73-.92-4.93-2.2-4.93-5.67s2.73-5.78,6.88-5.78c2.77,0,4.93.85,6.21,2.34v4.04h-.14c-1.13-1.03-3.37-2.06-5.64-2.06-1.63,0-2.34.57-2.34,1.35s.6,1.17,1.74,1.6l1.84.67c2.69.99,5.03,2.23,5.03,5.43,0,3.55-2.73,6.1-6.88,6.1-2.94,0-5.18-.96-6.52-2.62v-4.04h.14Z"/>
        <path class="cls-1" d="m194.44,12h5.04v9.79h.07c.89-1.7,2.41-3.3,5.39-3.3,2.7,0,4.47,1.42,5.36,3.19.71,1.42.82,3.01.82,5.18v10.6h-5.04v-9.54c0-1.52,0-2.69-.42-3.58-.39-.85-1.1-1.49-2.41-1.49-1.6,0-2.52,1.03-3.01,2.02-.64,1.28-.74,2.8-.74,5.04v7.55h-5.04V12Z"/>
      </g>
    </g>
  </g>
</svg>