<svg xmlns="http://www.w3.org/2000/svg" width="179" height="57" viewBox="0 0 179 57" fill="none">
  <g clip-path="url(#clip0_138_734)">
    <path fill-rule="evenodd" clip-rule="evenodd" d="M157.398 4.45491C157.398 -0.201105 153.311 -0.000694002 153.128 -0.000694002C152.074 -0.0148645 151.058 0.387982 150.301 1.12282C149.558 1.89612 149.152 2.93462 149.172 4.00752C149.172 7.16754 150.88 7.87404 151.504 8.12506C151.504 8.12506 151.286 8.54207 150.42 8.97731C149.948 9.21416 148.702 9.50364 148.702 10.7992C148.708 11.3478 149.158 11.7871 149.705 11.781C149.707 11.781 149.709 11.781 149.711 11.781C154.078 11.7851 157.398 7.74245 157.398 4.45288V4.45491Z" fill="#FF5100"/>
    <path fill-rule="evenodd" clip-rule="evenodd" d="M164.882 12.3296C164.44 11.8661 164.137 11.2992 163.802 10.7628C163.441 10.1777 163.38 9.40242 162.835 8.94087C162.092 8.33356 161.09 8.35178 160.182 8.4611C158.993 8.6028 157.961 9.27084 157.171 10.1494C156.041 11.3863 155.665 13.0928 155.849 14.7366C155.93 15.4532 156.134 16.1496 156.455 16.7954C155.546 17.8743 152.378 21.3319 148.233 24.4393C148.233 24.4373 148.233 24.4373 148.233 24.4353C144.7 26.8058 141.661 29.9597 137.775 29.9597C134.465 29.9597 134.492 27.3766 134.492 26.6337C134.492 20.9068 144.058 8.17364 145.098 6.09868C145.098 6.09868 146.467 4.04801 146.467 2.23014C146.467 0.527659 143.878 0.00335175 143.034 0.00335175C138.719 0.00335175 136.793 2.23014 136.052 2.95891C134.815 4.1634 126.151 16.4573 125.012 26.6094C122.957 28.152 120.134 29.6338 116.912 29.6338C114.939 29.6338 113.411 28.6904 113.714 26.8706C119.539 26.8706 124.356 22.4291 124.356 17.0828C124.368 12.6657 120.431 11.5381 116.552 11.5381C105.686 11.5381 104.065 22.7328 104.065 25.241C104.065 26.5365 104.317 27.8686 104.822 29.1277C103.146 29.5144 101.143 29.7957 98.9888 29.7127C98.2236 29.6844 95.617 29.7026 95.617 27.8382C95.617 23.9292 104.808 18.6213 104.808 15.1192C104.828 14.2791 104.511 13.4673 103.927 12.8641C103.138 12.0786 101.953 12.2385 100.919 12.1373C99.7459 12.028 95.193 12.6475 93.499 12.6475C91.7122 12.6475 87.0583 11.5341 86.3032 11.5341C85.7156 11.5341 84.8535 12.0341 84.8535 12.8641C84.8535 14.8884 89.5639 16.9512 90.0808 17.5727C90.311 17.8723 90.4261 18.2468 90.4038 18.6233C90.4038 21.3744 82.6204 30.2006 80.2905 30.2006C79.9816 30.2006 78.6147 29.9111 78.6147 27.9738C78.6147 25.4029 80.5146 18.8157 80.5146 15.1415C80.5146 13.7447 79.6262 11.5401 77.0519 11.5401C74.0819 11.5401 70.7162 14.19 68.049 15.9856C67.1223 16.6071 65.8826 15.9391 65.8786 14.8216C65.8745 13.6272 65.7312 12.7224 65.3819 12.2669C65.2365 12.0746 64.754 11.9997 64.1846 11.9997C60.8027 11.9895 60.0375 14.3722 59.7225 15.267C59.5832 15.6698 59.456 17.1516 59.353 18.7509C59.2178 20.8906 59.1269 23.2368 59.1168 23.4798V23.5223C59.135 24.0446 59.1511 24.5668 59.1612 25.0891C57.1603 26.99 53.5685 29.6338 49.2639 29.6338C47.2913 29.6338 45.7629 28.6904 46.0657 26.8706C51.8907 26.8706 56.7081 22.4291 56.7081 17.0828C56.7202 12.6657 52.7831 11.5381 48.9045 11.5381C38.038 11.5381 36.4167 22.7328 36.4167 25.241C36.4167 30.1379 40.0268 35.5651 47.1823 35.5651C52.1975 35.5651 56.8535 31.1764 59.1875 28.5528C59.1875 28.7168 59.1875 28.8787 59.1855 29.0407C59.1673 30.7573 58.8281 32.6278 59.7245 34.1845C60.4837 35.5004 61.6749 35.8263 63.1367 35.7676C63.9988 35.7332 64.861 35.5935 65.4626 34.9194C66.242 34.0449 65.9957 32.7736 65.9593 31.6966C65.9028 29.9941 65.7514 28.3038 65.7514 26.6033C65.7312 25.5709 65.6908 24.5385 65.6908 23.5041C65.6888 22.8421 65.6121 22.1579 65.8119 21.5161C66.1128 20.5485 66.9345 19.838 67.7603 19.3076C68.6507 18.7347 69.7006 18.3622 70.7667 18.3622C72.3193 18.3622 72.3819 19.84 72.2769 20.8238C72.2042 21.4554 71.5379 27.8341 71.4511 30.4516C71.4269 31.1743 72.0568 35.5793 77.2094 35.5793C80.5671 35.5793 86.6484 29.5326 87.448 28.6823C87.1673 30.4921 86.4607 35.5793 92.3906 35.5793C97.2484 35.5793 102.663 33.6137 106.453 31.8828C108.246 34.0428 111.04 35.5651 114.83 35.5651C118.864 35.5651 122.664 32.727 125.212 30.2512C125.46 31.061 125.842 31.8707 126.321 32.5145C126.522 32.7877 126.743 33.0489 126.979 33.2938C127.574 33.9133 128.275 34.4295 129.048 34.806C130.145 35.3404 131.362 35.5793 132.578 35.5793C139.406 35.5793 144.27 31.9071 149.766 26.9333C154.026 23.4109 157.024 19.9189 158.028 18.846C159.13 19.7327 160.345 20.4655 161.646 21.0242C162.875 21.5546 170.019 23.0324 170.019 26.0952C170.019 29.1581 167.03 30.0852 164.658 30.0852C162.286 30.0852 160.658 28.8261 160.198 28.2633C160.004 28.1844 159.786 28.1844 159.592 28.2633C159.217 28.4151 159.178 28.8706 159.108 29.2249C158.989 29.7654 159.191 30.2877 159.348 30.8039C159.738 32.0407 160.65 32.9942 161.638 33.8121C163.548 35.4113 166.079 35.634 168.502 35.634C178.785 35.634 179.001 27.071 179.001 26.0892C178.997 16.4249 165.926 13.4167 164.884 12.3296H164.882ZM43.7721 23.498H43.764C43.4147 20.4615 45.5206 17.0828 48.5108 17.0828C49.8716 17.0828 50.6348 17.4654 50.6348 18.7509C50.6429 20.7833 48.7026 24.1357 43.7721 23.498ZM111.42 23.498H111.412C111.063 20.4615 113.169 17.0828 116.159 17.0828C117.52 17.0828 118.283 17.4654 118.283 18.7509C118.291 20.7833 116.351 24.1357 111.42 23.498Z" fill="#FF5100"/>
    <path fill-rule="evenodd" clip-rule="evenodd" d="M22.976 3.33139C21.7645 4.31927 20.331 5.0035 19.1196 5.98734C17.1914 7.5967 15.453 9.41861 13.9367 11.4227C12.6183 13.1272 9.58971 16.9168 9.58971 19.8218C9.58971 22.0627 10.2398 22.9048 12.4911 22.9048C16.1253 22.9048 17.1692 19.2428 17.4296 17.9513C17.5811 17.1942 16.8906 12.3904 21.0498 12.3904C21.9987 12.3904 23.0244 12.5037 23.7008 13.2365C24.1793 13.7588 24.4297 14.1738 24.363 15.1597C24.3206 15.7022 23.9935 16.1314 23.8159 16.6192C23.515 17.4472 23.0931 18.265 23.0931 19.1578C23.0931 20.8258 23.8058 22.8664 25.8571 22.8664C28.1285 22.8664 29.9538 20.5768 30.5635 19.6396C32.7845 16.2265 32.4251 8.48539 32.3806 6.1088C32.3524 4.97921 32.314 3.85569 32.2534 2.72408C32.2272 2.2848 32.7925 2.30302 32.9783 2.60667C33.4992 3.49131 33.9434 4.42049 34.3068 5.38206C35.173 7.66148 35.3325 10.0988 35.5182 12.5098C35.7767 16.1131 36.0573 23.4777 32.2615 29.5427C31.2419 31.1622 27.9186 35.5955 22.6024 35.5955C17.9223 35.5955 15.8205 32.6825 15.0371 31.1116C15.0916 31.2189 14.3405 32.0509 14.2618 32.144C13.7732 32.7189 13.2139 33.229 12.5961 33.6623C10.9647 34.7999 8.77402 35.4153 6.80546 35.5996C5.23263 35.7473 3.5548 35.466 2.31309 34.4841C1.03504 33.472 0.376835 31.8403 0.154741 30.2229C-0.186477 27.6034 0.0376363 24.9393 0.816986 22.415C1.88102 18.9918 3.8193 15.9714 6.10283 13.2365C8.56202 10.2931 11.6047 7.91452 14.9058 5.98734C17.1773 4.66543 19.588 3.59658 22.0916 2.80101C22.982 2.52367 23.6483 2.79493 22.976 3.33139Z" fill="#FF5100"/>
    <path d="M45.2894 45.7793V56.0448H42.1842V45.7793H38.5176V43.2266H48.956V45.7793H45.2894Z" fill="white"/>
    <path d="M58.1734 56.0448V50.9616H53.2449V56.0448H50.1396V43.2266H53.2449V48.2692H58.1734V43.2266H61.2807V56.0448H58.1734Z" fill="white"/>
    <path d="M63.3643 56.0448V43.2266H70.6994V45.7793H66.409V48.3097H69.9362V50.9211H66.409V53.4941H71.2971V56.0448H63.3643Z" fill="white"/>
    <path d="M81.7169 56.0448H76.9883V43.2266H81.1758C83.1585 43.2266 84.9231 44.5323 84.9231 46.6234C84.9231 47.3866 84.5415 48.3502 83.8611 48.7328C84.9837 49.0931 86.082 50.4191 86.082 52.0467C86.0841 54.5386 84.1216 56.0448 81.7169 56.0448ZM80.6952 45.5384H79.7725V48.17H80.6952C81.4362 48.17 82.1086 47.7874 82.1086 46.8643C82.1086 45.9412 81.4362 45.5384 80.6952 45.5384ZM81.196 50.4191H79.7725V53.7755H81.196C82.1368 53.7755 83.0999 53.2734 83.0999 52.1074C83.0999 50.9414 82.157 50.4191 81.196 50.4191Z" fill="white"/>
    <path d="M95.6689 56.0446L94.6069 53.1518H90.5325L89.4704 56.0446H86.5469L91.5763 43.1211H93.7185L98.7479 56.0385L95.6689 56.0446ZM92.9634 48.352C92.816 47.9633 92.6888 47.5686 92.5838 47.1678H92.5434C92.4465 47.5686 92.3254 47.9654 92.182 48.352L91.3219 50.7225H93.8255L92.9634 48.352Z" fill="white"/>
    <path d="M106.844 56.0448L103.117 50.8138H103.097V56.0367H99.9893V43.2266H103.097V48.6721H103.117L106.975 43.2266H110.341L105.873 49.5365L110.543 56.0448H106.844Z" fill="white"/>
    <path d="M111.712 56.0448V43.2266H119.045V45.7793H114.759V48.3097H118.282V50.9211H114.759V53.4941H119.647V56.0448H111.712Z" fill="white"/>
    <path d="M128.042 56.0448L124.609 51.0021H123.794V56.0448H120.81V43.2266H125.478C127.662 43.2266 129.605 44.6942 129.605 47.1052C129.619 48.4656 128.855 49.7126 127.642 50.3199L131.708 56.0448H128.042ZM125.013 45.7388H123.794V48.6113H125.017C125.825 48.6113 126.62 48.17 126.62 47.1842C126.62 46.1983 125.819 45.7388 125.017 45.7388H125.013Z" fill="white"/>
    <path d="M135.776 56.2245C134.333 56.2245 132.95 55.8034 132.189 55.3418L131.888 52.4328C132.972 53.19 134.254 53.613 135.576 53.6475C136.677 53.6475 137.379 53.1454 137.379 52.362C137.379 51.6191 136.917 51.196 135.736 50.8761C133.222 50.2061 132.069 48.8113 132.069 46.8638C132.069 44.7342 133.652 43.0176 136.416 43.0176C137.88 43.0176 139.102 43.4407 139.623 43.7403L139.061 46.2525C138.316 45.8476 137.486 45.6189 136.639 45.5885C135.556 45.5885 135.056 46.0723 135.056 46.6938C135.056 47.3153 135.595 47.6797 136.578 47.961C139.023 48.6433 140.485 49.9085 140.485 52.1798C140.491 54.6596 138.876 56.2245 135.776 56.2245Z" fill="white"/>
  </g>
  <defs>
    <clipPath id="clip0_138_734">
      <rect width="179" height="56.2244" fill="white"/>
    </clipPath>
  </defs>
</svg>