<?xml version="1.0" encoding="UTF-8"?>
<svg id="Layer_1" xmlns="http://www.w3.org/2000/svg" version="1.1" viewBox="0 0 54.3 42.6">
  <!-- Generator: Adobe Illustrator 29.3.1, SVG Export Plug-In . SVG Version: 2.1.0 Build 151)  -->
  <defs>
    <style>
      .st0 {
        fill: #fff;
      }

      .st1 {
        fill: #d42d27;
      }
    </style>
  </defs>
  <g id="Layer_2">
    <g id="Layer_1-2">
      <g>
        <path class="st0" d="M.6,21.6C.4,6.3,11.4.6,26.9.4c15.5-.2,26.6,5.3,26.8,20.6.2,15.4-10.8,21.1-26.3,21.2-15.5.2-26.6-5.3-26.8-20.6"/>
        <path class="st0" d="M.6,21.6C.4,6.3,11.4.6,26.9.4c15.5-.2,26.6,5.3,26.8,20.6.2,15.4-10.8,21.1-26.3,21.2-15.5.2-26.6-5.3-26.8-20.6"/>
        <g>
          <path class="st1" d="M27.1,3.7c-10.2,0-18,2.8-21,10.2h42c-3-7.4-10.8-10.2-21-10.2Z"/>
          <path class="st1" d="M49.5,25c0,0,.1,0,.1,0,0,0,0,0-.1,0h-.1s0,.2,0,.2h.1s0,0,0,0Z"/>
          <path class="st1" d="M27.1,1.4c-14.8,0-25.2,5.3-25.2,19.9,0,14.6,10.5,19.9,25.2,19.9,14.7,0,25.2-5.3,25.2-19.9,0-14.6-10.5-19.9-25.2-19.9ZM27.1,2.6c11.6,0,20.4,3.5,23,12.7H4.1C6.7,6.1,15.5,2.6,27.1,2.6ZM48.1,23.9v1.7s-4,0-4,0v-1.7s.6,0,.6,0v-2.5s-1.8-3-1.8-3h-.6s0-1.7,0-1.7h3.5s0,1.7,0,1.7h-.6s.4.8.7,1.3c0,0,.1.1.2.1,0,0,.2,0,.2-.1.3-.5.7-1.3.7-1.3h-.6s0-1.7,0-1.7h3.5s0,1.7,0,1.7h-.6s-1.8,3-1.8,3v2.5s.6,0,.6,0ZM49.4,24.4h0c.4,0,.7.2.7.7,0,.4-.3.7-.7.7h0c-.4,0-.7-.3-.7-.7,0-.4.3-.7.7-.7ZM38.7,23.9h0s0,1.7,0,1.7h0s-4,0-4,0v-1.7s.6,0,.6,0v-5.4s-.6,0-.6,0v-1.7s3.3,0,3.3,0h.7c1.4,0,2.6.2,3.2,1.7.1.4.2.8.2,1.2h0c0,.7-.1,1.3-.4,1.8-.5,1.2-1.8,1.1-3,1.1-.2,0-.4,0-.5,0v1.3s.5,0,.5,0ZM34.1,23.9v1.7s-4,0-4,0v-1.7s.6,0,.6,0v-1.8c0-.2-.1-.3-.3-.3-.1,0-.3,0-.3.2l-1.4,3.7h-1.1s1,0,1,0h-1.1s-1.3-3.5-1.4-3.7c0-.1-.2-.2-.3-.2-.2,0-.3.1-.3.3v1.8s.6,0,.6,0v1.7s-4,0-4,0v-1.7s.6,0,.6,0v-5.4s-.6,0-.6,0v-1.7s4.3,0,4.3,0l1.3,3.5c0,.2.2.3.4.3.2,0,.3-.1.4-.3l1.3-3.5h4.3s0,1.7,0,1.7h-.6s0,5.4,0,5.4h.6ZM21.5,23.9v1.7s-4,0-4,0v-1.7s.6,0,.6,0v-5.4s-.6,0-.6,0v-1.7s4,0,4,0v1.7s-.6,0-.6,0v5.4s.6,0,.6,0ZM8.4,21h.1s1-2.6,1-2.6h-.6s0-1.7,0-1.7h3.2s0,1.7,0,1.7h-.6s1,2.6,1,2.6h.1s1-2.6,1-2.6h-.6s0-1.7,0-1.7h3.8s0,1.7,0,1.7h-.6s-2.7,7.2-2.7,7.2h-1.8s-1.1-2.8-1.1-2.8h-.3s-1.1,2.8-1.1,2.8h-1.8s-2.7-7.2-2.7-7.2h-.6s0-1.7,0-1.7h3.8s0,1.7,0,1.7h-.6s1,2.6,1,2.6ZM27.1,40.1c-11.8,0-20.6-3.6-23.1-13h46.2c-2.5,9.5-11.3,13-23.1,13Z"/>
          <path class="st1" d="M38.7,21c.3,0,.5-.3.5-1.5,0-1.1-.2-1.5-.5-1.5h-.5s0,3,0,3h.5s0,0,0,0Z"/>
          <path class="st1" d="M6,28.3c2.9,7.6,10.8,10.6,21.1,10.6,10.3,0,18.3-2.9,21.1-10.5H6Z"/>
          <path class="st1" d="M49.4,25.6h0c.3,0,.5-.2.5-.5,0-.3-.2-.5-.5-.5h0c-.3,0-.5.2-.5.5,0,.3.2.5.5.5ZM49.2,24.7h.3s0,0,0,0c.2,0,.3,0,.3.2,0,.1,0,.2-.2.2l.2.3h-.2s-.1-.2-.1-.2h0c0,0,0,0,0,0v.3s-.2,0-.2,0v-.7Z"/>
        </g>
      </g>
    </g>
  </g>
</svg>